<?xml version="1.0" standalone="no"?>
<!DOCTYPE svg PUBLIC "-//W3C//DTD SVG 20010904//EN"
 "http://www.w3.org/TR/2001/REC-SVG-20010904/DTD/svg10.dtd">
<svg version="1.0" xmlns="http://www.w3.org/2000/svg"
 width="200.000000pt" height="200.000000pt" viewBox="0 0 200.000000 200.000000"
 preserveAspectRatio="xMidYMid meet">
<metadata>
Created by potrace 1.11, written by Peter Selinger 2001-2013
</metadata>
<g transform="translate(0.000000,200.000000) scale(0.100000,-0.100000)"
fill="#000000" stroke="none">
<path d="M820 1885 c-218 -44 -413 -170 -553 -358 -49 -66 -112 -198 -137
-287 -28 -96 -37 -282 -21 -386 57 -348 316 -633 661 -726 115 -31 350 -33
450 -3 239 69 424 204 543 396 93 150 137 305 137 481 -1 433 -304 801 -728
884 -90 17 -264 17 -352 -1z m-452 -542 c7 -11 0 -36 -24 -87 -87 -184 -80
-383 21 -550 58 -96 19 -139 -43 -47 -68 100 -110 268 -97 395 8 85 43 198 79
261 28 47 49 56 64 28z m1320 -51 c91 -171 94 -387 9 -567 -43 -88 -69 -120
-90 -112 -25 9 -21 41 12 90 52 76 81 182 81 294 0 111 -15 174 -62 270 -26
52 -29 65 -18 78 20 24 32 14 68 -53z m-631 28 c54 -32 63 -63 63 -210 0 -147
-9 -178 -63 -210 -67 -41 -164 -13 -193 55 -20 48 -20 275 1 314 35 69 125 92
192 51z m540 -157 c23 -49 27 -72 27 -153 1 -90 -1 -100 -34 -165 -26 -52 -41
-71 -58 -73 -36 -5 -37 24 -4 91 50 99 50 174 1 293 -15 38 -7 64 21 64 16 0
28 -14 47 -57z m-1163 25 c7 -11 3 -31 -14 -69 -35 -82 -31 -162 10 -245 30
-58 32 -67 18 -80 -21 -22 -42 -9 -71 44 -49 92 -57 204 -21 292 33 78 55 94
78 58z m386 -131 c0 -136 66 -212 178 -204 56 4 91 23 126 71 16 21 22 47 26
114 4 72 8 87 23 90 27 5 25 -153 -3 -209 -23 -44 -86 -94 -131 -104 -43 -10
-35 -31 19 -49 51 -17 119 -77 108 -95 -5 -7 -66 -11 -177 -11 -150 0 -170 2
-176 17 -9 23 56 77 112 93 25 7 45 18 45 24 0 6 -19 17 -41 24 -104 32 -149
102 -149 230 0 75 2 82 20 82 18 0 20 -7 20 -73z m-304 38 c3 -8 1 -30 -5 -48
-10 -28 -9 -42 5 -76 13 -33 14 -44 4 -56 -18 -22 -28 -19 -50 18 -23 36 -27
111 -8 152 12 27 45 34 54 10z m982 -20 c27 -59 1 -175 -39 -175 -28 0 -33 19
-14 61 16 33 16 45 6 79 -7 22 -9 45 -6 50 12 19 42 10 53 -15z"/>
<path d="M919 1271 c-21 -22 -29 -39 -29 -65 0 -36 0 -36 45 -36 38 0 45 -3
45 -20 0 -17 -7 -20 -45 -20 -38 0 -45 -3 -45 -20 0 -14 7 -20 23 -20 29 0 37
-7 30 -26 -3 -8 -17 -14 -30 -14 -24 0 -25 -2 -20 -42 11 -85 99 -118 158 -59
l29 29 0 132 0 132 -29 29 c-41 40 -91 40 -132 0z"/>
<path d="M915 721 l-40 -19 109 -1 c110 -1 123 6 57 28 -48 16 -80 13 -126 -8z"/>
</g>
</svg>
